<svg width="736" height="229" viewBox="0 0 736 229" fill="none" xmlns="http://www.w3.org/2000/svg">
<path d="M60.5 48.5V16.5H28.5V48.5H60.5ZM69.5 48.5H101.5V16.5H69.5V48.5ZM69.5 75.5H37.5V107.5H69.5V75.5ZM96.5 75.5H128.5V43.5H96.5V75.5ZM96.5 80V112H128.5V80H96.5ZM65 80H33V112H65V80ZM65 75.5H97V43.5H65V75.5ZM60.5 75.5H28.5V107.5H60.5V75.5ZM105.5 48.5V16.5H73.5V48.5H105.5ZM114.5 48.5H146.5V16.5H114.5V48.5ZM114.5 62H82.5V94H114.5V62ZM128 62H160V30H128V62ZM128 66.5V98.5H160V66.5H128ZM114.5 66.5V34.5H82.5V66.5H114.5ZM114.5 80V112H146.5V80H114.5ZM105.5 80H73.5V112H105.5V80ZM65 84.5V52.5H33V84.5H65ZM74 84.5H106V52.5H74V84.5ZM74 102.5H42V134.5H74V102.5ZM114.5 102.5H146.5V70.5H114.5V102.5ZM114.5 107V139H146.5V107H114.5ZM69.5 107H37.5V139H69.5V107ZM69.5 102.5H101.5V70.5H69.5V102.5ZM65 102.5H33V134.5H65V102.5ZM60.5 80.5H69.5V16.5H60.5V80.5ZM37.5 48.5V75.5H101.5V48.5H37.5ZM69.5 107.5H96.5V43.5H69.5V107.5ZM64.5 75.5V80H128.5V75.5H64.5ZM96.5 48H65V112H96.5V48ZM97 80V75.5H33V80H97ZM65 43.5H60.5V107.5H65V43.5ZM92.5 75.5V48.5H28.5V75.5H92.5ZM105.5 80.5H114.5V16.5H105.5V80.5ZM82.5 48.5V62H146.5V48.5H82.5ZM114.5 94H128V30H114.5V94ZM96 62V66.5H160V62H96ZM128 34.5H114.5V98.5H128V34.5ZM82.5 66.5V80H146.5V66.5H82.5ZM114.5 48H105.5V112H114.5V48ZM137.5 80V48.5H73.5V80H137.5ZM65 116.5H74V52.5H65V116.5ZM42 84.5V102.5H106V84.5H42ZM74 134.5H114.5V70.5H74V134.5ZM82.5 102.5V107H146.5V102.5H82.5ZM114.5 75H69.5V139H114.5V75ZM101.5 107V102.5H37.5V107H101.5ZM69.5 70.5H65V134.5H69.5V70.5ZM97 102.5V84.5H33V102.5H97ZM132.5 89V57H100.5V89H132.5ZM141.5 89H173.5V57H141.5V89ZM141.5 98V130H173.5V98H141.5ZM132.5 98H100.5V130H132.5V98ZM132.5 121H141.5V57H132.5V121ZM109.5 89V98H173.5V89H109.5ZM141.5 66H132.5V130H141.5V66ZM164.5 98V89H100.5V98H164.5ZM155 89V57H123V89H155ZM164 89H196V57H164V89ZM164 98V130H196V98H164ZM155 98H123V130H155V98ZM155 121H164V57H155V121ZM132 89V98H196V89H132ZM164 66H155V130H164V66ZM187 98V89H123V98H187ZM177.5 89V57H145.5V89H177.5ZM186.5 89H218.5V57H186.5V89ZM186.5 98V130H218.5V98H186.5ZM177.5 98H145.5V130H177.5V98ZM177.5 121H186.5V57H177.5V121ZM154.5 89V98H218.5V89H154.5ZM186.5 66H177.5V130H186.5V66ZM209.5 98V89H145.5V98H209.5ZM204.5 53V21H172.5V53H204.5ZM258.5 53H290.5V21H258.5V53ZM258.5 80V112H290.5V80H258.5ZM254 80V48H222V80H254ZM254 84.5V116.5H286V84.5H254ZM245 84.5H213V116.5H245V84.5ZM245 80V48H213V80H245ZM249.5 80V112H281.5V80H249.5ZM249.5 57.5H281.5V25.5H249.5V57.5ZM204.5 57.5H172.5V89.5H204.5V57.5ZM204.5 85H258.5V21H204.5V85ZM226.5 53V80H290.5V53H226.5ZM258.5 48H254V112H258.5V48ZM222 80V84.5H286V80H222ZM254 52.5H245V116.5H254V52.5ZM277 84.5V80H213V84.5H277ZM245 112H249.5V48H245V112ZM281.5 80V57.5H217.5V80H281.5ZM249.5 25.5H204.5V89.5H249.5V25.5ZM236.5 57.5V53H172.5V57.5H236.5ZM317 48.5V16.5H285V48.5H317ZM326 48.5H358V16.5H326V48.5ZM326 75.5H294V107.5H326V75.5ZM339.5 75.5H371.5V43.5H339.5V75.5ZM339.5 80V112H371.5V80H339.5ZM326 80V48H294V80H326ZM326 107V139H358V107H326ZM317 107H285V139H317V107ZM317 80.5H326V16.5H317V80.5ZM294 48.5V75.5H358V48.5H294ZM326 107.5H339.5V43.5H326V107.5ZM307.5 75.5V80H371.5V75.5H307.5ZM339.5 48H326V112H339.5V48ZM294 80V107H358V80H294ZM326 75H317V139H326V75ZM349 107V48.5H285V107H349ZM348.5 48.5V16.5H316.5V48.5H348.5ZM375.5 48.5H407.5V16.5H375.5V48.5ZM375.5 66.5V98.5H407.5V66.5H375.5ZM371 66.5V34.5H339V66.5H371ZM371 71V103H403V71H371ZM362 71H330V103H362V71ZM362 66.5V34.5H330V66.5H362ZM366.5 66.5V98.5H398.5V66.5H366.5ZM366.5 53H398.5V21H366.5V53ZM348.5 53H316.5V85H348.5V53ZM380 48.5V16.5H348V48.5H380ZM402.5 48.5H434.5V16.5H402.5V48.5ZM402.5 66.5V98.5H434.5V66.5H402.5ZM398 66.5V34.5H366V66.5H398ZM398 71V103H430V71H398ZM389 71H357V103H389V71ZM389 66.5V34.5H357V66.5H389ZM393.5 66.5V98.5H425.5V66.5H393.5ZM393.5 53H425.5V21H393.5V53ZM380 53H348V85H380V53ZM344 75.5V43.5H312V75.5H344ZM407 75.5H439V43.5H407V75.5ZM407 80V112H439V80H407ZM344 80H312V112H344V80ZM348.5 84.5V52.5H316.5V84.5H348.5ZM402.5 84.5H434.5V52.5H402.5V84.5ZM402.5 102.5V134.5H434.5V102.5H402.5ZM398 102.5V70.5H366V102.5H398ZM398 107V139H430V107H398ZM353 107H321V139H353V107ZM353 102.5H385V70.5H353V102.5ZM348.5 102.5H316.5V134.5H348.5V102.5ZM357.5 89V57H325.5V89H357.5ZM357.5 102.5H325.5V134.5H357.5V102.5ZM393.5 102.5V134.5H425.5V102.5H393.5ZM393.5 89H425.5V57H393.5V89ZM348.5 80.5H375.5V16.5H348.5V80.5ZM343.5 48.5V66.5H407.5V48.5H343.5ZM375.5 34.5H371V98.5H375.5V34.5ZM339 66.5V71H403V66.5H339ZM371 39H362V103H371V39ZM394 71V66.5H330V71H394ZM362 98.5H366.5V34.5H362V98.5ZM398.5 66.5V53H334.5V66.5H398.5ZM366.5 21H348.5V85H366.5V21ZM380.5 53V48.5H316.5V53H380.5ZM380 80.5H402.5V16.5H380V80.5ZM370.5 48.5V66.5H434.5V48.5H370.5ZM402.5 34.5H398V98.5H402.5V34.5ZM366 66.5V71H430V66.5H366ZM398 39H389V103H398V39ZM421 71V66.5H357V71H421ZM389 98.5H393.5V34.5H389V98.5ZM425.5 66.5V53H361.5V66.5H425.5ZM393.5 21H380V85H393.5V21ZM412 53V48.5H348V53H412ZM344 107.5H407V43.5H344V107.5ZM375 75.5V80H439V75.5H375ZM407 48H344V112H407V48ZM376 80V75.5H312V80H376ZM348.5 116.5H402.5V52.5H348.5V116.5ZM370.5 84.5V102.5H434.5V84.5H370.5ZM402.5 70.5H398V134.5H402.5V70.5ZM366 102.5V107H430V102.5H366ZM398 75H353V139H398V75ZM385 107V102.5H321V107H385ZM353 70.5H348.5V134.5H353V70.5ZM380.5 102.5V84.5H316.5V102.5H380.5ZM325.5 89V102.5H389.5V89H325.5ZM357.5 134.5H393.5V70.5H357.5V134.5ZM425.5 102.5V89H361.5V102.5H425.5ZM393.5 57H357.5V121H393.5V57ZM416 89V57H384V89H416ZM425 89H457V57H425V89ZM425 98V130H457V98H425ZM416 98H384V130H416V98ZM416 121H425V57H416V121ZM393 89V98H457V89H393ZM425 66H416V130H425V66ZM448 98V89H384V98H448ZM438.5 89V57H406.5V89H438.5ZM447.5 89H479.5V57H447.5V89ZM447.5 98V130H479.5V98H447.5ZM438.5 98H406.5V130H438.5V98ZM438.5 121H447.5V57H438.5V121ZM415.5 89V98H479.5V89H415.5ZM447.5 66H438.5V130H447.5V66ZM470.5 98V89H406.5V98H470.5ZM461 89V57H429V89H461ZM470 89H502V57H470V89ZM470 98V130H502V98H470ZM461 98H429V130H461V98ZM461 121H470V57H461V121ZM438 89V98H502V89H438ZM470 66H461V130H470V66ZM493 98V89H429V98H493ZM65 120.5V88.5H33V120.5H65ZM74 120.5H106V88.5H74V120.5ZM74 138.5H42V170.5H74V138.5ZM119 138.5H151V106.5H119V138.5ZM119 143V175H151V143H119ZM69.5 143H37.5V175H69.5V143ZM69.5 138.5H101.5V106.5H69.5V138.5ZM65 138.5H33V170.5H65V138.5ZM60.5 147.5V115.5H28.5V147.5H60.5ZM123.5 147.5H155.5V115.5H123.5V147.5ZM123.5 152V184H155.5V152H123.5ZM96.5 152V120H64.5V152H96.5ZM96.5 161V193H128.5V161H96.5ZM87.5 161H55.5V193H87.5V161ZM87.5 152H119.5V120H87.5V152ZM60.5 152H28.5V184H60.5V152ZM65 156.5V124.5H33V156.5H65ZM74 156.5H106V124.5H74V156.5ZM74 174.5H42V206.5H74V174.5ZM119 174.5H151V142.5H119V174.5ZM119 179V211H151V179H119ZM69.5 179H37.5V211H69.5V179ZM69.5 174.5H101.5V142.5H69.5V174.5ZM65 174.5H33V206.5H65V174.5ZM65 152.5H74V88.5H65V152.5ZM42 120.5V138.5H106V120.5H42ZM74 170.5H119V106.5H74V170.5ZM87 138.5V143H151V138.5H87ZM119 111H69.5V175H119V111ZM101.5 143V138.5H37.5V143H101.5ZM69.5 106.5H65V170.5H69.5V106.5ZM97 138.5V120.5H33V138.5H97ZM60.5 179.5H123.5V115.5H60.5V179.5ZM91.5 147.5V152H155.5V147.5H91.5ZM123.5 120H96.5V184H123.5V120ZM64.5 152V161H128.5V152H64.5ZM96.5 129H87.5V193H96.5V129ZM119.5 161V152H55.5V161H119.5ZM87.5 120H60.5V184H87.5V120ZM92.5 152V147.5H28.5V152H92.5ZM65 188.5H74V124.5H65V188.5ZM42 156.5V174.5H106V156.5H42ZM74 206.5H119V142.5H74V206.5ZM87 174.5V179H151V174.5H87ZM119 147H69.5V211H119V147ZM101.5 179V174.5H37.5V179H101.5ZM69.5 142.5H65V206.5H69.5V142.5ZM97 174.5V156.5H33V174.5H97ZM137 120.5V88.5H105V120.5H137ZM191 120.5H223V88.5H191V120.5ZM191 138.5V170.5H223V138.5H191ZM186.5 138.5V106.5H154.5V138.5H186.5ZM186.5 143V175H218.5V143H186.5ZM141.5 143H109.5V175H141.5V143ZM141.5 138.5H173.5V106.5H141.5V138.5ZM137 138.5H105V170.5H137V138.5ZM146 125V93H114V125H146ZM146 138.5H114V170.5H146V138.5ZM182 138.5V170.5H214V138.5H182ZM182 125H214V93H182V125ZM132.5 147.5V115.5H100.5V147.5H132.5ZM195.5 147.5H227.5V115.5H195.5V147.5ZM195.5 152V184H227.5V152H195.5ZM168.5 152V120H136.5V152H168.5ZM168.5 161V193H200.5V161H168.5ZM159.5 161H127.5V193H159.5V161ZM159.5 152H191.5V120H159.5V152ZM132.5 152H100.5V184H132.5V152ZM137 156.5V124.5H105V156.5H137ZM191 156.5H223V124.5H191V156.5ZM191 170V202H223V170H191ZM146 170V138H114V170H146ZM146 174.5H114V206.5H146V174.5ZM191 174.5H223V142.5H191V174.5ZM191 179V211H223V179H191ZM141.5 179H109.5V211H141.5V179ZM141.5 174.5H173.5V142.5H141.5V174.5ZM137 174.5H105V206.5H137V174.5ZM137 165.5V133.5H105V165.5H137ZM182 165.5V197.5H214V165.5H182ZM182 161H214V129H182V161ZM137 161H105V193H137V161ZM137 152.5H191V88.5H137V152.5ZM159 120.5V138.5H223V120.5H159ZM191 106.5H186.5V170.5H191V106.5ZM154.5 138.5V143H218.5V138.5H154.5ZM186.5 111H141.5V175H186.5V111ZM173.5 143V138.5H109.5V143H173.5ZM141.5 106.5H137V170.5H141.5V106.5ZM169 138.5V120.5H105V138.5H169ZM114 125V138.5H178V125H114ZM146 170.5H182V106.5H146V170.5ZM214 138.5V125H150V138.5H214ZM182 93H146V157H182V93ZM132.5 179.5H195.5V115.5H132.5V179.5ZM163.5 147.5V152H227.5V147.5H163.5ZM195.5 120H168.5V184H195.5V120ZM136.5 152V161H200.5V152H136.5ZM168.5 129H159.5V193H168.5V129ZM191.5 161V152H127.5V161H191.5ZM159.5 120H132.5V184H159.5V120ZM164.5 152V147.5H100.5V152H164.5ZM137 188.5H191V124.5H137V188.5ZM159 156.5V170H223V156.5H159ZM191 138H146V202H191V138ZM114 170V174.5H178V170H114ZM146 206.5H191V142.5H146V206.5ZM159 174.5V179H223V174.5H159ZM191 147H141.5V211H191V147ZM173.5 179V174.5H109.5V179H173.5ZM141.5 142.5H137V206.5H141.5V142.5ZM169 174.5V165.5H105V174.5H169ZM137 197.5H182V133.5H137V197.5ZM214 165.5V161H150V165.5H214ZM182 129H137V193H182V129ZM169 161V156.5H105V161H169ZM209 125V93H177V125H209ZM218 125V157H250V125H218ZM218 120.5V88.5H186V120.5H218ZM254 120.5H286V88.5H254V120.5ZM254 125H222V157H254V125ZM263 125H295V93H263V125ZM263 138.5V170.5H295V138.5H263ZM254 138.5V106.5H222V138.5H254ZM254 143V175H286V143H254ZM218 143H186V175H218V143ZM218 138.5H250V106.5H218V138.5ZM209 138.5H177V170.5H209V138.5ZM218 129.5V97.5H186V129.5H218ZM218 134H186V166H218V134ZM222.5 134H254.5V102H222.5V134ZM222.5 138.5H190.5V170.5H222.5V138.5ZM249.5 138.5V170.5H281.5V138.5H249.5ZM249.5 134V102H217.5V134H249.5ZM254 134V166H286V134H254ZM254 129.5H286V97.5H254V129.5ZM249.5 129.5H217.5V161.5H249.5V129.5ZM249.5 125H281.5V93H249.5V125ZM222.5 125V93H190.5V125H222.5ZM222.5 129.5V161.5H254.5V129.5H222.5ZM204.5 147.5V115.5H172.5V147.5H204.5ZM267.5 147.5H299.5V115.5H267.5V147.5ZM267.5 152V184H299.5V152H267.5ZM204.5 152H172.5V184H204.5V152ZM209 156.5V124.5H177V156.5H209ZM263 156.5H295V124.5H263V156.5ZM263 170V202H295V170H263ZM218 170V138H186V170H218ZM218 174.5H186V206.5H218V174.5ZM263 174.5H295V142.5H263V174.5ZM263 179V211H295V179H263ZM213.5 179H181.5V211H213.5V179ZM213.5 174.5H245.5V142.5H213.5V174.5ZM209 174.5H177V206.5H209V174.5ZM209 165.5V133.5H177V165.5H209ZM254 165.5V197.5H286V165.5H254ZM254 161H286V129H254V161ZM209 161H177V193H209V161ZM209 157H218V93H209V157ZM250 125V120.5H186V125H250ZM218 152.5H254V88.5H218V152.5ZM222 120.5V125H286V120.5H222ZM254 157H263V93H254V157ZM231 125V138.5H295V125H231ZM263 106.5H254V170.5H263V106.5ZM222 138.5V143H286V138.5H222ZM254 111H218V175H254V111ZM250 143V138.5H186V143H250ZM218 106.5H209V170.5H218V106.5ZM241 138.5V125H177V138.5H241ZM186 129.5V134H250V129.5H186ZM218 166H222.5V102H218V166ZM190.5 134V138.5H254.5V134H190.5ZM222.5 170.5H249.5V106.5H222.5V170.5ZM281.5 138.5V134H217.5V138.5H281.5ZM249.5 166H254V102H249.5V166ZM286 134V129.5H222V134H286ZM254 97.5H249.5V161.5H254V97.5ZM281.5 129.5V125H217.5V129.5H281.5ZM249.5 93H222.5V157H249.5V93ZM190.5 125V129.5H254.5V125H190.5ZM222.5 97.5H218V161.5H222.5V97.5ZM204.5 179.5H267.5V115.5H204.5V179.5ZM235.5 147.5V152H299.5V147.5H235.5ZM267.5 120H204.5V184H267.5V120ZM236.5 152V147.5H172.5V152H236.5ZM209 188.5H263V124.5H209V188.5ZM231 156.5V170H295V156.5H231ZM263 138H218V202H263V138ZM186 170V174.5H250V170H186ZM218 206.5H263V142.5H218V206.5ZM231 174.5V179H295V174.5H231ZM263 147H213.5V211H263V147ZM245.5 179V174.5H181.5V179H245.5ZM213.5 142.5H209V206.5H213.5V142.5ZM241 174.5V165.5H177V174.5H241ZM209 197.5H254V133.5H209V197.5ZM286 165.5V161H222V165.5H286ZM254 129H209V193H254V129ZM241 161V156.5H177V161H241ZM303.5 125V93H271.5V125H303.5ZM326 125V157H358V125H326ZM326 120.5V88.5H294V120.5H326ZM335 120.5H367V88.5H335V120.5ZM335 125H303V157H335V125ZM357.5 125H389.5V93H357.5V125ZM357.5 129.5V161.5H389.5V129.5H357.5ZM353 129.5V97.5H321V129.5H353ZM353 134H321V166H353V134ZM357.5 134H389.5V102H357.5V134ZM357.5 138.5V170.5H389.5V138.5H357.5ZM353 138.5V106.5H321V138.5H353ZM353 143V175H385V143H353ZM308 143H276V175H308V143ZM308 138.5H340V106.5H308V138.5ZM303.5 138.5H271.5V170.5H303.5V138.5ZM303.5 134V102H271.5V134H303.5ZM308 134V166H340V134H308ZM308 129.5H340V97.5H308V129.5ZM303.5 129.5H271.5V161.5H303.5V129.5ZM312.5 134V102H280.5V134H312.5ZM312.5 138.5H280.5V170.5H312.5V138.5ZM348.5 138.5V170.5H380.5V138.5H348.5ZM348.5 134H380.5V102H348.5V134ZM299 147.5V115.5H267V147.5H299ZM362 147.5H394V115.5H362V147.5ZM362 152V184H394V152H362ZM299 152H267V184H299V152ZM303.5 156.5V124.5H271.5V156.5H303.5ZM357.5 156.5H389.5V124.5H357.5V156.5ZM357.5 170V202H389.5V170H357.5ZM312.5 170V138H280.5V170H312.5ZM312.5 174.5H280.5V206.5H312.5V174.5ZM357.5 174.5H389.5V142.5H357.5V174.5ZM357.5 179V211H389.5V179H357.5ZM308 179H276V211H308V179ZM308 174.5H340V142.5H308V174.5ZM303.5 174.5H271.5V206.5H303.5V174.5ZM303.5 165.5V133.5H271.5V165.5H303.5ZM348.5 165.5V197.5H380.5V165.5H348.5ZM348.5 161H380.5V129H348.5V161ZM303.5 161H271.5V193H303.5V161ZM303.5 157H326V93H303.5V157ZM358 125V120.5H294V125H358ZM326 152.5H335V88.5H326V152.5ZM303 120.5V125H367V120.5H303ZM335 157H357.5V93H335V157ZM325.5 125V129.5H389.5V125H325.5ZM357.5 97.5H353V161.5H357.5V97.5ZM321 129.5V134H385V129.5H321ZM353 166H357.5V102H353V166ZM325.5 134V138.5H389.5V134H325.5ZM357.5 106.5H353V170.5H357.5V106.5ZM321 138.5V143H385V138.5H321ZM353 111H308V175H353V111ZM340 143V138.5H276V143H340ZM308 106.5H303.5V170.5H308V106.5ZM335.5 138.5V134H271.5V138.5H335.5ZM303.5 166H308V102H303.5V166ZM340 134V129.5H276V134H340ZM308 97.5H303.5V161.5H308V97.5ZM335.5 129.5V125H271.5V129.5H335.5ZM280.5 134V138.5H344.5V134H280.5ZM312.5 170.5H348.5V106.5H312.5V170.5ZM380.5 138.5V134H316.5V138.5H380.5ZM348.5 102H312.5V166H348.5V102ZM299 179.5H362V115.5H299V179.5ZM330 147.5V152H394V147.5H330ZM362 120H299V184H362V120ZM331 152V147.5H267V152H331ZM303.5 188.5H357.5V124.5H303.5V188.5ZM325.5 156.5V170H389.5V156.5H325.5ZM357.5 138H312.5V202H357.5V138ZM280.5 170V174.5H344.5V170H280.5ZM312.5 206.5H357.5V142.5H312.5V206.5ZM325.5 174.5V179H389.5V174.5H325.5ZM357.5 147H308V211H357.5V147ZM340 179V174.5H276V179H340ZM308 142.5H303.5V206.5H308V142.5ZM335.5 174.5V165.5H271.5V174.5H335.5ZM303.5 197.5H348.5V133.5H303.5V197.5ZM380.5 165.5V161H316.5V165.5H380.5ZM348.5 129H303.5V193H348.5V129ZM335.5 161V156.5H271.5V161H335.5ZM371 120.5V88.5H339V120.5H371ZM407 120.5H439V88.5H407V120.5ZM407 138.5V170.5H439V138.5H407ZM380 138.5V106.5H348V138.5H380ZM380 147.5H348V179.5H380V147.5ZM407 147.5H439V115.5H407V147.5ZM407 152V184H439V152H407ZM375.5 152H343.5V184H375.5V152ZM375.5 147.5H407.5V115.5H375.5V147.5ZM371 147.5H339V179.5H371V147.5ZM371 134V102H339V134H371ZM398 134V166H430V134H398ZM398 125H430V93H398V125ZM371 125H339V157H371V125ZM420.5 120.5V88.5H388.5V120.5H420.5ZM429.5 120.5H461.5V88.5H429.5V120.5ZM429.5 152V184H461.5V152H429.5ZM420.5 152H388.5V184H420.5V152ZM375.5 156.5V124.5H343.5V156.5H375.5ZM384.5 156.5H416.5V124.5H384.5V156.5ZM384.5 174.5H352.5V206.5H384.5V174.5ZM429.5 174.5H461.5V142.5H429.5V174.5ZM429.5 179V211H461.5V179H429.5ZM380 179H348V211H380V179ZM380 174.5H412V142.5H380V174.5ZM375.5 174.5H343.5V206.5H375.5V174.5ZM371 152.5H407V88.5H371V152.5ZM375 120.5V138.5H439V120.5H375ZM407 106.5H380V170.5H407V106.5ZM348 138.5V147.5H412V138.5H348ZM380 179.5H407V115.5H380V179.5ZM375 147.5V152H439V147.5H375ZM407 120H375.5V184H407V120ZM407.5 152V147.5H343.5V152H407.5ZM375.5 115.5H371V179.5H375.5V115.5ZM403 147.5V134H339V147.5H403ZM371 166H398V102H371V166ZM430 134V125H366V134H430ZM398 93H371V157H398V93ZM403 125V120.5H339V125H403ZM420.5 152.5H429.5V88.5H420.5V152.5ZM397.5 120.5V152H461.5V120.5H397.5ZM429.5 120H420.5V184H429.5V120ZM452.5 152V120.5H388.5V152H452.5ZM375.5 188.5H384.5V124.5H375.5V188.5ZM352.5 156.5V174.5H416.5V156.5H352.5ZM384.5 206.5H429.5V142.5H384.5V206.5ZM397.5 174.5V179H461.5V174.5H397.5ZM429.5 147H380V211H429.5V147ZM412 179V174.5H348V179H412ZM380 142.5H375.5V206.5H380V142.5ZM407.5 174.5V156.5H343.5V174.5H407.5ZM470 125V93H438V125H470ZM524 125H556V93H524V125ZM524 129.5V161.5H556V129.5H524ZM479 129.5V97.5H447V129.5H479ZM479 152H447V184H479V152ZM524 152H556V120H524V152ZM524 156.5V188.5H556V156.5H524ZM474.5 156.5H442.5V188.5H474.5V156.5ZM474.5 152H506.5V120H474.5V152ZM470 152H438V184H470V152ZM470 157H524V93H470V157ZM492 125V129.5H556V125H492ZM524 97.5H479V161.5H524V97.5ZM447 129.5V152H511V129.5H447ZM479 184H524V120H479V184ZM492 152V156.5H556V152H492ZM524 124.5H474.5V188.5H524V124.5ZM506.5 156.5V152H442.5V156.5H506.5ZM474.5 120H470V184H474.5V120ZM502 152V125H438V152H502ZM582.5 120.5V88.5H550.5V120.5H582.5ZM591.5 120.5H623.5V88.5H591.5V120.5ZM591.5 147.5H559.5V179.5H591.5V147.5ZM605 147.5H637V115.5H605V147.5ZM605 152V184H637V152H605ZM591.5 152V120H559.5V152H591.5ZM591.5 179V211H623.5V179H591.5ZM582.5 179H550.5V211H582.5V179ZM582.5 152.5H591.5V88.5H582.5V152.5ZM559.5 120.5V147.5H623.5V120.5H559.5ZM591.5 179.5H605V115.5H591.5V179.5ZM573 147.5V152H637V147.5H573ZM605 120H591.5V184H605V120ZM559.5 152V179H623.5V152H559.5ZM591.5 147H582.5V211H591.5V147ZM614.5 179V120.5H550.5V179H614.5ZM609.5 161V129H577.5V161H609.5ZM618.5 161H650.5V129H618.5V161ZM618.5 170V202H650.5V170H618.5ZM609.5 170H577.5V202H609.5V170ZM609.5 193H618.5V129H609.5V193ZM586.5 161V170H650.5V161H586.5ZM618.5 138H609.5V202H618.5V138ZM641.5 170V161H577.5V170H641.5ZM632 161V129H600V161H632ZM641 161H673V129H641V161ZM641 170V202H673V170H641ZM632 170H600V202H632V170ZM632 193H641V129H632V193ZM609 161V170H673V161H609ZM641 138H632V202H641V138ZM664 170V161H600V170H664ZM654.5 161V129H622.5V161H654.5ZM663.5 161H695.5V129H663.5V161ZM663.5 170V202H695.5V170H663.5ZM654.5 170H622.5V202H654.5V170ZM654.5 193H663.5V129H654.5V193ZM631.5 161V170H695.5V161H631.5ZM663.5 138H654.5V202H663.5V138ZM686.5 170V161H622.5V170H686.5ZM677 161V129H645V161H677ZM686 161H718V129H686V161ZM686 170V202H718V170H686ZM677 170H645V202H677V170ZM677 193H686V129H677V193ZM654 161V170H718V161H654ZM686 138H677V202H686V138ZM709 170V161H645V170H709Z" fill="white"/>
<path d="M60.5 48.5V44.5H56.5V48.5H60.5ZM69.5 48.5H73.5V44.5H69.5V48.5ZM69.5 75.5H65.5V79.5H69.5V75.5ZM96.5 75.5H100.5V71.5H96.5V75.5ZM96.5 80V84H100.5V80H96.5ZM65 80H61V84H65V80ZM65 75.5H69V71.5H65V75.5ZM60.5 75.5H56.5V79.5H60.5V75.5ZM105.5 48.5V44.5H101.5V48.5H105.5ZM114.5 48.5H118.5V44.5H114.5V48.5ZM114.5 62H110.5V66H114.5V62ZM128 62H132V58H128V62ZM128 66.5V70.5H132V66.5H128ZM114.5 66.5V62.5H110.5V66.5H114.5ZM114.5 80V84H118.5V80H114.5ZM105.5 80H101.5V84H105.5V80ZM65 84.5V80.5H61V84.5H65ZM74 84.5H78V80.5H74V84.5ZM74 102.5H70V106.5H74V102.5ZM114.5 102.5H118.5V98.5H114.5V102.5ZM114.5 107V111H118.5V107H114.5ZM69.5 107H65.5V111H69.5V107ZM69.5 102.5H73.5V98.5H69.5V102.5ZM65 102.5H61V106.5H65V102.5ZM60.5 52.5H69.5V44.5H60.5V52.5ZM65.5 48.5V75.5H73.5V48.5H65.5ZM69.5 79.5H96.5V71.5H69.5V79.5ZM92.5 75.5V80H100.5V75.5H92.5ZM96.5 76H65V84H96.5V76ZM69 80V75.5H61V80H69ZM65 71.5H60.5V79.5H65V71.5ZM64.5 75.5V48.5H56.5V75.5H64.5ZM105.5 52.5H114.5V44.5H105.5V52.5ZM110.5 48.5V62H118.5V48.5H110.5ZM114.5 66H128V58H114.5V66ZM124 62V66.5H132V62H124ZM128 62.5H114.5V70.5H128V62.5ZM110.5 66.5V80H118.5V66.5H110.5ZM114.5 76H105.5V84H114.5V76ZM109.5 80V48.5H101.5V80H109.5ZM65 88.5H74V80.5H65V88.5ZM70 84.5V102.5H78V84.5H70ZM74 106.5H114.5V98.5H74V106.5ZM110.5 102.5V107H118.5V102.5H110.5ZM114.5 103H69.5V111H114.5V103ZM73.5 107V102.5H65.5V107H73.5ZM69.5 98.5H65V106.5H69.5V98.5ZM69 102.5V84.5H61V102.5H69ZM132.5 89V85H128.5V89H132.5ZM141.5 89H145.5V85H141.5V89ZM141.5 98V102H145.5V98H141.5ZM132.5 98H128.5V102H132.5V98ZM132.5 93H141.5V85H132.5V93ZM137.5 89V98H145.5V89H137.5ZM141.5 94H132.5V102H141.5V94ZM136.5 98V89H128.5V98H136.5ZM155 89V85H151V89H155ZM164 89H168V85H164V89ZM164 98V102H168V98H164ZM155 98H151V102H155V98ZM155 93H164V85H155V93ZM160 89V98H168V89H160ZM164 94H155V102H164V94ZM159 98V89H151V98H159ZM177.5 89V85H173.5V89H177.5ZM186.5 89H190.5V85H186.5V89ZM186.5 98V102H190.5V98H186.5ZM177.5 98H173.5V102H177.5V98ZM177.5 93H186.5V85H177.5V93ZM182.5 89V98H190.5V89H182.5ZM186.5 94H177.5V102H186.5V94ZM181.5 98V89H173.5V98H181.5ZM204.5 53V49H200.5V53H204.5ZM258.5 53H262.5V49H258.5V53ZM258.5 80V84H262.5V80H258.5ZM254 80V76H250V80H254ZM254 84.5V88.5H258V84.5H254ZM245 84.5H241V88.5H245V84.5ZM245 80V76H241V80H245ZM249.5 80V84H253.5V80H249.5ZM249.5 57.5H253.5V53.5H249.5V57.5ZM204.5 57.5H200.5V61.5H204.5V57.5ZM204.5 57H258.5V49H204.5V57ZM254.5 53V80H262.5V53H254.5ZM258.5 76H254V84H258.5V76ZM250 80V84.5H258V80H250ZM254 80.5H245V88.5H254V80.5ZM249 84.5V80H241V84.5H249ZM245 84H249.5V76H245V84ZM253.5 80V57.5H245.5V80H253.5ZM249.5 53.5H204.5V61.5H249.5V53.5ZM208.5 57.5V53H200.5V57.5H208.5ZM317 48.5V44.5H313V48.5H317ZM326 48.5H330V44.5H326V48.5ZM326 75.5H322V79.5H326V75.5ZM339.5 75.5H343.5V71.5H339.5V75.5ZM339.5 80V84H343.5V80H339.5ZM326 80V76H322V80H326ZM326 107V111H330V107H326ZM317 107H313V111H317V107ZM317 52.5H326V44.5H317V52.5ZM322 48.5V75.5H330V48.5H322ZM326 79.5H339.5V71.5H326V79.5ZM335.5 75.5V80H343.5V75.5H335.5ZM339.5 76H326V84H339.5V76ZM322 80V107H330V80H322ZM326 103H317V111H326V103ZM321 107V48.5H313V107H321ZM348.5 48.5V44.5H344.5V48.5H348.5ZM375.5 48.5H379.5V44.5H375.5V48.5ZM375.5 66.5V70.5H379.5V66.5H375.5ZM371 66.5V62.5H367V66.5H371ZM371 71V75H375V71H371ZM362 71H358V75H362V71ZM362 66.5V62.5H358V66.5H362ZM366.5 66.5V70.5H370.5V66.5H366.5ZM366.5 53H370.5V49H366.5V53ZM348.5 53H344.5V57H348.5V53ZM380 48.5V44.5H376V48.5H380ZM402.5 48.5H406.5V44.5H402.5V48.5ZM402.5 66.5V70.5H406.5V66.5H402.5ZM398 66.5V62.5H394V66.5H398ZM398 71V75H402V71H398ZM389 71H385V75H389V71ZM389 66.5V62.5H385V66.5H389ZM393.5 66.5V70.5H397.5V66.5H393.5ZM393.5 53H397.5V49H393.5V53ZM380 53H376V57H380V53ZM344 75.5V71.5H340V75.5H344ZM407 75.5H411V71.5H407V75.5ZM407 80V84H411V80H407ZM344 80H340V84H344V80ZM348.5 84.5V80.5H344.5V84.5H348.5ZM402.5 84.5H406.5V80.5H402.5V84.5ZM402.5 102.5V106.5H406.5V102.5H402.5ZM398 102.5V98.5H394V102.5H398ZM398 107V111H402V107H398ZM353 107H349V111H353V107ZM353 102.5H357V98.5H353V102.5ZM348.5 102.5H344.5V106.5H348.5V102.5ZM357.5 89V85H353.5V89H357.5ZM357.5 102.5H353.5V106.5H357.5V102.5ZM393.5 102.5V106.5H397.5V102.5H393.5ZM393.5 89H397.5V85H393.5V89ZM348.5 52.5H375.5V44.5H348.5V52.5ZM371.5 48.5V66.5H379.5V48.5H371.5ZM375.5 62.5H371V70.5H375.5V62.5ZM367 66.5V71H375V66.5H367ZM371 67H362V75H371V67ZM366 71V66.5H358V71H366ZM362 70.5H366.5V62.5H362V70.5ZM370.5 66.5V53H362.5V66.5H370.5ZM366.5 49H348.5V57H366.5V49ZM352.5 53V48.5H344.5V53H352.5ZM380 52.5H402.5V44.5H380V52.5ZM398.5 48.5V66.5H406.5V48.5H398.5ZM402.5 62.5H398V70.5H402.5V62.5ZM394 66.5V71H402V66.5H394ZM398 67H389V75H398V67ZM393 71V66.5H385V71H393ZM389 70.5H393.5V62.5H389V70.5ZM397.5 66.5V53H389.5V66.5H397.5ZM393.5 49H380V57H393.5V49ZM384 53V48.5H376V53H384ZM344 79.5H407V71.5H344V79.5ZM403 75.5V80H411V75.5H403ZM407 76H344V84H407V76ZM348 80V75.5H340V80H348ZM348.5 88.5H402.5V80.5H348.5V88.5ZM398.5 84.5V102.5H406.5V84.5H398.5ZM402.5 98.5H398V106.5H402.5V98.5ZM394 102.5V107H402V102.5H394ZM398 103H353V111H398V103ZM357 107V102.5H349V107H357ZM353 98.5H348.5V106.5H353V98.5ZM352.5 102.5V84.5H344.5V102.5H352.5ZM353.5 89V102.5H361.5V89H353.5ZM357.5 106.5H393.5V98.5H357.5V106.5ZM397.5 102.5V89H389.5V102.5H397.5ZM393.5 85H357.5V93H393.5V85ZM416 89V85H412V89H416ZM425 89H429V85H425V89ZM425 98V102H429V98H425ZM416 98H412V102H416V98ZM416 93H425V85H416V93ZM421 89V98H429V89H421ZM425 94H416V102H425V94ZM420 98V89H412V98H420ZM438.5 89V85H434.5V89H438.5ZM447.5 89H451.5V85H447.5V89ZM447.5 98V102H451.5V98H447.5ZM438.5 98H434.5V102H438.5V98ZM438.5 93H447.5V85H438.5V93ZM443.5 89V98H451.5V89H443.5ZM447.5 94H438.5V102H447.5V94ZM442.5 98V89H434.5V98H442.5ZM461 89V85H457V89H461ZM470 89H474V85H470V89ZM470 98V102H474V98H470ZM461 98H457V102H461V98ZM461 93H470V85H461V93ZM466 89V98H474V89H466ZM470 94H461V102H470V94ZM465 98V89H457V98H465ZM65 120.5V116.5H61V120.5H65ZM74 120.5H78V116.5H74V120.5ZM74 138.5H70V142.5H74V138.5ZM119 138.5H123V134.5H119V138.5ZM119 143V147H123V143H119ZM69.5 143H65.5V147H69.5V143ZM69.5 138.5H73.5V134.5H69.5V138.5ZM65 138.5H61V142.5H65V138.5ZM60.5 147.5V143.5H56.5V147.5H60.5ZM123.5 147.5H127.5V143.5H123.5V147.5ZM123.5 152V156H127.5V152H123.5ZM96.5 152V148H92.5V152H96.5ZM96.5 161V165H100.5V161H96.5ZM87.5 161H83.5V165H87.5V161ZM87.5 152H91.5V148H87.5V152ZM60.5 152H56.5V156H60.5V152ZM65 156.5V152.5H61V156.5H65ZM74 156.5H78V152.5H74V156.5ZM74 174.5H70V178.5H74V174.5ZM119 174.5H123V170.5H119V174.5ZM119 179V183H123V179H119ZM69.5 179H65.5V183H69.5V179ZM69.5 174.5H73.5V170.5H69.5V174.5ZM65 174.5H61V178.5H65V174.5ZM65 124.5H74V116.5H65V124.5ZM70 120.5V138.5H78V120.5H70ZM74 142.5H119V134.5H74V142.5ZM115 138.5V143H123V138.5H115ZM119 139H69.5V147H119V139ZM73.5 143V138.5H65.5V143H73.5ZM69.5 134.5H65V142.5H69.5V134.5ZM69 138.5V120.5H61V138.5H69ZM60.5 151.5H123.5V143.5H60.5V151.5ZM119.5 147.5V152H127.5V147.5H119.5ZM123.5 148H96.5V156H123.5V148ZM92.5 152V161H100.5V152H92.5ZM96.5 157H87.5V165H96.5V157ZM91.5 161V152H83.5V161H91.5ZM87.5 148H60.5V156H87.5V148ZM64.5 152V147.5H56.5V152H64.5ZM65 160.5H74V152.5H65V160.5ZM70 156.5V174.5H78V156.5H70ZM74 178.5H119V170.5H74V178.5ZM115 174.5V179H123V174.5H115ZM119 175H69.5V183H119V175ZM73.5 179V174.5H65.5V179H73.5ZM69.5 170.5H65V178.5H69.5V170.5ZM69 174.5V156.5H61V174.5H69ZM137 120.5V116.5H133V120.5H137ZM191 120.5H195V116.5H191V120.5ZM191 138.5V142.5H195V138.5H191ZM186.5 138.5V134.5H182.5V138.5H186.5ZM186.5 143V147H190.5V143H186.5ZM141.5 143H137.5V147H141.5V143ZM141.5 138.5H145.5V134.5H141.5V138.5ZM137 138.5H133V142.5H137V138.5ZM146 125V121H142V125H146ZM146 138.5H142V142.5H146V138.5ZM182 138.5V142.5H186V138.5H182ZM182 125H186V121H182V125ZM132.5 147.5V143.5H128.5V147.5H132.5ZM195.5 147.5H199.5V143.5H195.5V147.5ZM195.5 152V156H199.5V152H195.5ZM168.5 152V148H164.5V152H168.5ZM168.5 161V165H172.5V161H168.5ZM159.5 161H155.5V165H159.5V161ZM159.5 152H163.5V148H159.5V152ZM132.5 152H128.5V156H132.5V152ZM137 156.5V152.5H133V156.5H137ZM191 156.5H195V152.5H191V156.5ZM191 170V174H195V170H191ZM146 170V166H142V170H146ZM146 174.5H142V178.5H146V174.5ZM191 174.5H195V170.5H191V174.5ZM191 179V183H195V179H191ZM141.5 179H137.5V183H141.5V179ZM141.5 174.5H145.5V170.5H141.5V174.5ZM137 174.5H133V178.5H137V174.5ZM137 165.5V161.5H133V165.5H137ZM182 165.5V169.5H186V165.5H182ZM182 161H186V157H182V161ZM137 161H133V165H137V161ZM137 124.5H191V116.5H137V124.5ZM187 120.5V138.5H195V120.5H187ZM191 134.5H186.5V142.5H191V134.5ZM182.5 138.5V143H190.5V138.5H182.5ZM186.5 139H141.5V147H186.5V139ZM145.5 143V138.5H137.5V143H145.5ZM141.5 134.5H137V142.5H141.5V134.5ZM141 138.5V120.5H133V138.5H141ZM142 125V138.5H150V125H142ZM146 142.5H182V134.5H146V142.5ZM186 138.5V125H178V138.5H186ZM182 121H146V129H182V121ZM132.5 151.5H195.5V143.5H132.5V151.5ZM191.5 147.5V152H199.5V147.5H191.5ZM195.5 148H168.5V156H195.5V148ZM164.5 152V161H172.5V152H164.5ZM168.5 157H159.5V165H168.5V157ZM163.5 161V152H155.5V161H163.5ZM159.5 148H132.5V156H159.5V148ZM136.5 152V147.5H128.5V152H136.5ZM137 160.5H191V152.5H137V160.5ZM187 156.5V170H195V156.5H187ZM191 166H146V174H191V166ZM142 170V174.5H150V170H142ZM146 178.5H191V170.5H146V178.5ZM187 174.5V179H195V174.5H187ZM191 175H141.5V183H191V175ZM145.5 179V174.5H137.5V179H145.5ZM141.5 170.5H137V178.5H141.5V170.5ZM141 174.5V165.5H133V174.5H141ZM137 169.5H182V161.5H137V169.5ZM186 165.5V161H178V165.5H186ZM182 157H137V165H182V157ZM141 161V156.5H133V161H141ZM209 125V121H205V125H209ZM218 125V129H222V125H218ZM218 120.5V116.5H214V120.5H218ZM254 120.5H258V116.5H254V120.5ZM254 125H250V129H254V125ZM263 125H267V121H263V125ZM263 138.5V142.5H267V138.5H263ZM254 138.5V134.5H250V138.5H254ZM254 143V147H258V143H254ZM218 143H214V147H218V143ZM218 138.5H222V134.5H218V138.5ZM209 138.5H205V142.5H209V138.5ZM218 129.5V125.5H214V129.5H218ZM218 134H214V138H218V134ZM222.5 134H226.5V130H222.5V134ZM222.5 138.5H218.5V142.5H222.5V138.5ZM249.5 138.5V142.5H253.5V138.5H249.5ZM249.5 134V130H245.5V134H249.5ZM254 134V138H258V134H254ZM254 129.5H258V125.5H254V129.5ZM249.5 129.5H245.5V133.5H249.5V129.5ZM249.5 125H253.5V121H249.5V125ZM222.5 125V121H218.5V125H222.5ZM222.5 129.5V133.5H226.5V129.5H222.5ZM204.5 147.5V143.5H200.5V147.5H204.5ZM267.5 147.5H271.5V143.5H267.5V147.5ZM267.5 152V156H271.5V152H267.5ZM204.5 152H200.5V156H204.5V152ZM209 156.5V152.5H205V156.5H209ZM263 156.5H267V152.5H263V156.5ZM263 170V174H267V170H263ZM218 170V166H214V170H218ZM218 174.5H214V178.5H218V174.5ZM263 174.5H267V170.5H263V174.5ZM263 179V183H267V179H263ZM213.5 179H209.5V183H213.5V179ZM213.5 174.5H217.5V170.5H213.5V174.5ZM209 174.5H205V178.5H209V174.5ZM209 165.5V161.5H205V165.5H209ZM254 165.5V169.5H258V165.5H254ZM254 161H258V157H254V161ZM209 161H205V165H209V161ZM209 129H218V121H209V129ZM222 125V120.5H214V125H222ZM218 124.5H254V116.5H218V124.5ZM250 120.5V125H258V120.5H250ZM254 129H263V121H254V129ZM259 125V138.5H267V125H259ZM263 134.5H254V142.5H263V134.5ZM250 138.5V143H258V138.5H250ZM254 139H218V147H254V139ZM222 143V138.5H214V143H222ZM218 134.5H209V142.5H218V134.5ZM213 138.5V125H205V138.5H213ZM214 129.5V134H222V129.5H214ZM218 138H222.5V130H218V138ZM218.5 134V138.5H226.5V134H218.5ZM222.5 142.5H249.5V134.5H222.5V142.5ZM253.5 138.5V134H245.5V138.5H253.5ZM249.5 138H254V130H249.5V138ZM258 134V129.5H250V134H258ZM254 125.5H249.5V133.5H254V125.5ZM253.5 129.5V125H245.5V129.5H253.5ZM249.5 121H222.5V129H249.5V121ZM218.5 125V129.5H226.5V125H218.5ZM222.5 125.5H218V133.5H222.5V125.5ZM204.5 151.5H267.5V143.5H204.5V151.5ZM263.5 147.5V152H271.5V147.5H263.5ZM267.5 148H204.5V156H267.5V148ZM208.5 152V147.5H200.5V152H208.5ZM209 160.5H263V152.5H209V160.5ZM259 156.5V170H267V156.5H259ZM263 166H218V174H263V166ZM214 170V174.5H222V170H214ZM218 178.5H263V170.5H218V178.5ZM259 174.5V179H267V174.5H259ZM263 175H213.5V183H263V175ZM217.5 179V174.5H209.5V179H217.5ZM213.5 170.5H209V178.5H213.5V170.5ZM213 174.5V165.5H205V174.5H213ZM209 169.5H254V161.5H209V169.5ZM258 165.5V161H250V165.5H258ZM254 157H209V165H254V157ZM213 161V156.5H205V161H213ZM303.5 125V121H299.5V125H303.5ZM326 125V129H330V125H326ZM326 120.5V116.5H322V120.5H326ZM335 120.5H339V116.5H335V120.5ZM335 125H331V129H335V125ZM357.5 125H361.5V121H357.5V125ZM357.5 129.5V133.5H361.5V129.5H357.5ZM353 129.5V125.5H349V129.5H353ZM353 134H349V138H353V134ZM357.5 134H361.5V130H357.5V134ZM357.5 138.5V142.5H361.5V138.5H357.5ZM353 138.5V134.5H349V138.5H353ZM353 143V147H357V143H353ZM308 143H304V147H308V143ZM308 138.5H312V134.5H308V138.5ZM303.5 138.5H299.5V142.5H303.5V138.5ZM303.5 134V130H299.5V134H303.5ZM308 134V138H312V134H308ZM308 129.5H312V125.5H308V129.5ZM303.5 129.5H299.5V133.5H303.5V129.5ZM312.5 134V130H308.5V134H312.5ZM312.5 138.5H308.5V142.5H312.5V138.5ZM348.5 138.5V142.5H352.5V138.5H348.5ZM348.5 134H352.5V130H348.5V134ZM299 147.5V143.5H295V147.5H299ZM362 147.5H366V143.5H362V147.5ZM362 152V156H366V152H362ZM299 152H295V156H299V152ZM303.5 156.5V152.5H299.5V156.5H303.5ZM357.5 156.5H361.5V152.5H357.5V156.5ZM357.5 170V174H361.5V170H357.5ZM312.5 170V166H308.5V170H312.5ZM312.5 174.5H308.5V178.5H312.5V174.5ZM357.5 174.5H361.5V170.5H357.5V174.5ZM357.5 179V183H361.5V179H357.5ZM308 179H304V183H308V179ZM308 174.5H312V170.5H308V174.5ZM303.5 174.5H299.5V178.5H303.5V174.5ZM303.5 165.5V161.5H299.5V165.5H303.5ZM348.5 165.5V169.5H352.5V165.5H348.5ZM348.5 161H352.5V157H348.5V161ZM303.5 161H299.5V165H303.5V161ZM303.5 129H326V121H303.5V129ZM330 125V120.5H322V125H330ZM326 124.5H335V116.5H326V124.5ZM331 120.5V125H339V120.5H331ZM335 129H357.5V121H335V129ZM353.5 125V129.5H361.5V125H353.5ZM357.5 125.5H353V133.5H357.5V125.5ZM349 129.5V134H357V129.5H349ZM353 138H357.5V130H353V138ZM353.5 134V138.5H361.5V134H353.5ZM357.5 134.5H353V142.5H357.5V134.5ZM349 138.5V143H357V138.5H349ZM353 139H308V147H353V139ZM312 143V138.5H304V143H312ZM308 134.5H303.5V142.5H308V134.5ZM307.5 138.5V134H299.5V138.5H307.5ZM303.5 138H308V130H303.5V138ZM312 134V129.5H304V134H312ZM308 125.5H303.5V133.5H308V125.5ZM307.5 129.5V125H299.5V129.5H307.5ZM308.5 134V138.5H316.5V134H308.5ZM312.5 142.5H348.5V134.5H312.5V142.5ZM352.5 138.5V134H344.5V138.5H352.5ZM348.5 130H312.5V138H348.5V130ZM299 151.5H362V143.5H299V151.5ZM358 147.5V152H366V147.5H358ZM362 148H299V156H362V148ZM303 152V147.5H295V152H303ZM303.5 160.5H357.5V152.5H303.5V160.5ZM353.5 156.5V170H361.5V156.5H353.5ZM357.5 166H312.5V174H357.5V166ZM308.5 170V174.5H316.5V170H308.5ZM312.5 178.5H357.5V170.5H312.5V178.5ZM353.5 174.5V179H361.5V174.5H353.5ZM357.5 175H308V183H357.5V175ZM312 179V174.5H304V179H312ZM308 170.5H303.5V178.5H308V170.5ZM307.5 174.5V165.5H299.5V174.5H307.5ZM303.5 169.5H348.5V161.5H303.5V169.5ZM352.5 165.5V161H344.5V165.5H352.5ZM348.5 157H303.5V165H348.5V157ZM307.5 161V156.5H299.5V161H307.5ZM371 120.5V116.5H367V120.5H371ZM407 120.5H411V116.5H407V120.5ZM407 138.5V142.5H411V138.5H407ZM380 138.5V134.5H376V138.5H380ZM380 147.5H376V151.5H380V147.5ZM407 147.5H411V143.5H407V147.5ZM407 152V156H411V152H407ZM375.5 152H371.5V156H375.5V152ZM375.5 147.5H379.5V143.5H375.5V147.5ZM371 147.5H367V151.5H371V147.5ZM371 134V130H367V134H371ZM398 134V138H402V134H398ZM398 125H402V121H398V125ZM371 125H367V129H371V125ZM420.5 120.5V116.5H416.5V120.5H420.5ZM429.5 120.5H433.5V116.5H429.5V120.5ZM429.5 152V156H433.5V152H429.5ZM420.5 152H416.5V156H420.5V152ZM375.5 156.5V152.5H371.5V156.5H375.5ZM384.5 156.5H388.5V152.5H384.5V156.5ZM384.5 174.5H380.5V178.5H384.5V174.5ZM429.5 174.5H433.5V170.5H429.5V174.5ZM429.5 179V183H433.5V179H429.5ZM380 179H376V183H380V179ZM380 174.5H384V170.5H380V174.5ZM375.5 174.5H371.5V178.5H375.5V174.5ZM371 124.5H407V116.5H371V124.5ZM403 120.5V138.5H411V120.5H403ZM407 134.5H380V142.5H407V134.5ZM376 138.5V147.5H384V138.5H376ZM380 151.5H407V143.5H380V151.5ZM403 147.5V152H411V147.5H403ZM407 148H375.5V156H407V148ZM379.5 152V147.5H371.5V152H379.5ZM375.5 143.5H371V151.5H375.5V143.5ZM375 147.5V134H367V147.5H375ZM371 138H398V130H371V138ZM402 134V125H394V134H402ZM398 121H371V129H398V121ZM375 125V120.5H367V125H375ZM420.5 124.5H429.5V116.5H420.5V124.5ZM425.5 120.5V152H433.5V120.5H425.5ZM429.5 148H420.5V156H429.5V148ZM424.5 152V120.5H416.5V152H424.5ZM375.5 160.5H384.5V152.5H375.5V160.5ZM380.5 156.5V174.5H388.5V156.5H380.5ZM384.5 178.5H429.5V170.5H384.5V178.5ZM425.5 174.5V179H433.5V174.5H425.5ZM429.5 175H380V183H429.5V175ZM384 179V174.5H376V179H384ZM380 170.5H375.5V178.5H380V170.5ZM379.5 174.5V156.5H371.5V174.5H379.5ZM470 125V121H466V125H470ZM524 125H528V121H524V125ZM524 129.5V133.5H528V129.5H524ZM479 129.5V125.5H475V129.5H479ZM479 152H475V156H479V152ZM524 152H528V148H524V152ZM524 156.5V160.5H528V156.5H524ZM474.5 156.5H470.5V160.5H474.5V156.5ZM474.5 152H478.5V148H474.5V152ZM470 152H466V156H470V152ZM470 129H524V121H470V129ZM520 125V129.5H528V125H520ZM524 125.5H479V133.5H524V125.5ZM475 129.5V152H483V129.5H475ZM479 156H524V148H479V156ZM520 152V156.5H528V152H520ZM524 152.5H474.5V160.5H524V152.5ZM478.5 156.5V152H470.5V156.5H478.5ZM474.5 148H470V156H474.5V148ZM474 152V125H466V152H474ZM582.5 120.5V116.5H578.5V120.5H582.5ZM591.5 120.5H595.5V116.5H591.5V120.5ZM591.5 147.5H587.5V151.5H591.5V147.5ZM605 147.5H609V143.5H605V147.5ZM605 152V156H609V152H605ZM591.5 152V148H587.5V152H591.5ZM591.5 179V183H595.5V179H591.5ZM582.5 179H578.5V183H582.5V179ZM582.5 124.5H591.5V116.5H582.5V124.5ZM587.5 120.5V147.5H595.5V120.5H587.5ZM591.5 151.5H605V143.5H591.5V151.5ZM601 147.5V152H609V147.5H601ZM605 148H591.5V156H605V148ZM587.5 152V179H595.5V152H587.5ZM591.5 175H582.5V183H591.5V175ZM586.5 179V120.5H578.5V179H586.5ZM609.5 161V157H605.5V161H609.5ZM618.5 161H622.5V157H618.5V161ZM618.5 170V174H622.5V170H618.5ZM609.5 170H605.5V174H609.5V170ZM609.5 165H618.5V157H609.5V165ZM614.5 161V170H622.5V161H614.5ZM618.5 166H609.5V174H618.5V166ZM613.5 170V161H605.5V170H613.5ZM632 161V157H628V161H632ZM641 161H645V157H641V161ZM641 170V174H645V170H641ZM632 170H628V174H632V170ZM632 165H641V157H632V165ZM637 161V170H645V161H637ZM641 166H632V174H641V166ZM636 170V161H628V170H636ZM654.5 161V157H650.5V161H654.5ZM663.5 161H667.5V157H663.5V161ZM663.5 170V174H667.5V170H663.5ZM654.5 170H650.5V174H654.5V170ZM654.5 165H663.5V157H654.5V165ZM659.5 161V170H667.5V161H659.5ZM663.5 166H654.5V174H663.5V166ZM658.5 170V161H650.5V170H658.5ZM677 161V157H673V161H677ZM686 161H690V157H686V161ZM686 170V174H690V170H686ZM677 170H673V174H677V170ZM677 165H686V157H677V165ZM682 161V170H690V161H682ZM686 166H677V174H686V166ZM681 170V161H673V170H681Z" fill="#1B1054"/>
<path d="M60.5 47.5H69.5V74.5H96.5V79H65V74.5H60.5V47.5ZM105.5 47.5H114.5V61H128V65.5H114.5V79H105.5V47.5ZM65 83.5H74V101.5H114.5V106H69.5V101.5H65V83.5ZM132.5 88H141.5V97H132.5V88ZM155 88H164V97H155V88ZM177.5 88H186.5V97H177.5V88ZM204.5 52H258.5V79H254V83.5H245V79H249.5V56.5H204.5V52ZM317 47.5H326V74.5H339.5V79H326V106H317V47.5ZM348.5 47.5H375.5V65.5H371V70H362V65.5H366.5V52H348.5V47.5ZM380 47.5H402.5V65.5H398V70H389V65.5H393.5V52H380V47.5ZM344 74.5H407V79H344V74.5ZM348.5 83.5H402.5V101.5H398V106H353V101.5H348.5V83.5ZM357.5 88V101.5H393.5V88H357.5ZM416 88H425V97H416V88ZM438.5 88H447.5V97H438.5V88ZM461 88H470V97H461V88ZM65 119.5H74V137.5H119V142H69.5V137.5H65V119.5ZM60.5 146.5H123.5V151H96.5V160H87.5V151H60.5V146.5ZM65 155.5H74V173.5H119V178H69.5V173.5H65V155.5ZM137 119.5H191V137.5H186.5V142H141.5V137.5H137V119.5ZM146 124V137.5H182V124H146ZM132.5 146.5H195.5V151H168.5V160H159.5V151H132.5V146.5ZM137 155.5H191V169H146V173.5H191V178H141.5V173.5H137V164.5H182V160H137V155.5ZM209 124H218V119.5H254V124H263V137.5H254V142H218V137.5H209V124ZM218 128.5V133H222.5V137.5H249.5V133H254V128.5H249.5V124H222.5V128.5H218ZM204.5 146.5H267.5V151H204.5V146.5ZM209 155.5H263V169H218V173.5H263V178H213.5V173.5H209V164.5H254V160H209V155.5ZM303.5 124H326V119.5H335V124H357.5V128.5H353V133H357.5V137.5H353V142H308V137.5H303.5V133H308V128.5H303.5V124ZM312.5 133V137.5H348.5V133H312.5ZM299 146.5H362V151H299V146.5ZM303.5 155.5H357.5V169H312.5V173.5H357.5V178H308V173.5H303.5V164.5H348.5V160H303.5V155.5ZM371 119.5H407V137.5H380V146.5H407V151H375.5V146.5H371V133H398V124H371V119.5ZM420.5 119.5H429.5V151H420.5V119.5ZM375.5 155.5H384.5V173.5H429.5V178H380V173.5H375.5V155.5ZM470 124H524V128.5H479V151H524V155.5H474.5V151H470V124ZM582.5 119.5H591.5V146.5H605V151H591.5V178H582.5V119.5ZM609.5 160H618.5V169H609.5V160ZM632 160H641V169H632V160ZM654.5 160H663.5V169H654.5V160ZM677 160H686V169H677V160Z" fill="#FF6363"/>
<path d="M60.5 47.5V46.5H59.5V47.5H60.5ZM69.5 47.5H70.5V46.5H69.5V47.5ZM69.5 74.5H68.5V75.5H69.5V74.5ZM96.5 74.5H97.5V73.5H96.5V74.5ZM96.5 79V80H97.5V79H96.5ZM65 79H64V80H65V79ZM65 74.5H66V73.5H65V74.5ZM60.5 74.5H59.5V75.5H60.5V74.5ZM105.5 47.5V46.5H104.5V47.5H105.5ZM114.5 47.5H115.5V46.5H114.5V47.5ZM114.5 61H113.5V62H114.5V61ZM128 61H129V60H128V61ZM128 65.5V66.5H129V65.5H128ZM114.5 65.5V64.5H113.5V65.5H114.5ZM114.5 79V80H115.5V79H114.5ZM105.5 79H104.5V80H105.5V79ZM65 83.5V82.5H64V83.5H65ZM74 83.5H75V82.5H74V83.5ZM74 101.5H73V102.5H74V101.5ZM114.5 101.5H115.5V100.5H114.5V101.5ZM114.5 106V107H115.5V106H114.5ZM69.5 106H68.5V107H69.5V106ZM69.5 101.5H70.5V100.5H69.5V101.5ZM65 101.5H64V102.5H65V101.5ZM60.5 48.5H69.5V46.5H60.5V48.5ZM68.5 47.5V74.5H70.5V47.5H68.5ZM69.5 75.5H96.5V73.5H69.5V75.5ZM95.5 74.5V79H97.5V74.5H95.5ZM96.5 78H65V80H96.5V78ZM66 79V74.5H64V79H66ZM65 73.5H60.5V75.5H65V73.5ZM61.5 74.5V47.5H59.5V74.5H61.5ZM105.5 48.5H114.5V46.5H105.5V48.5ZM113.5 47.5V61H115.5V47.5H113.5ZM114.5 62H128V60H114.5V62ZM127 61V65.5H129V61H127ZM128 64.5H114.5V66.5H128V64.5ZM113.5 65.5V79H115.5V65.5H113.5ZM114.5 78H105.5V80H114.5V78ZM106.5 79V47.5H104.5V79H106.5ZM65 84.5H74V82.5H65V84.5ZM73 83.5V101.5H75V83.5H73ZM74 102.5H114.5V100.5H74V102.5ZM113.5 101.5V106H115.5V101.5H113.5ZM114.5 105H69.5V107H114.5V105ZM70.5 106V101.5H68.5V106H70.5ZM69.5 100.5H65V102.5H69.5V100.5ZM66 101.5V83.5H64V101.5H66ZM132.5 88V87H131.5V88H132.5ZM141.5 88H142.5V87H141.5V88ZM141.5 97V98H142.5V97H141.5ZM132.5 97H131.5V98H132.5V97ZM132.5 89H141.5V87H132.5V89ZM140.5 88V97H142.5V88H140.5ZM141.5 96H132.5V98H141.5V96ZM133.5 97V88H131.5V97H133.5ZM155 88V87H154V88H155ZM164 88H165V87H164V88ZM164 97V98H165V97H164ZM155 97H154V98H155V97ZM155 89H164V87H155V89ZM163 88V97H165V88H163ZM164 96H155V98H164V96ZM156 97V88H154V97H156ZM177.5 88V87H176.5V88H177.5ZM186.5 88H187.5V87H186.5V88ZM186.5 97V98H187.5V97H186.5ZM177.5 97H176.5V98H177.5V97ZM177.5 89H186.5V87H177.5V89ZM185.5 88V97H187.5V88H185.5ZM186.5 96H177.5V98H186.5V96ZM178.5 97V88H176.5V97H178.5ZM204.5 52V51H203.5V52H204.5ZM258.5 52H259.5V51H258.5V52ZM258.5 79V80H259.5V79H258.5ZM254 79V78H253V79H254ZM254 83.5V84.5H255V83.5H254ZM245 83.5H244V84.5H245V83.5ZM245 79V78H244V79H245ZM249.5 79V80H250.5V79H249.5ZM249.5 56.5H250.5V55.5H249.5V56.5ZM204.5 56.5H203.5V57.5H204.5V56.5ZM204.5 53H258.5V51H204.5V53ZM257.5 52V79H259.5V52H257.5ZM258.5 78H254V80H258.5V78ZM253 79V83.5H255V79H253ZM254 82.5H245V84.5H254V82.5ZM246 83.5V79H244V83.5H246ZM245 80H249.5V78H245V80ZM250.5 79V56.5H248.5V79H250.5ZM249.5 55.5H204.5V57.5H249.5V55.5ZM205.5 56.5V52H203.5V56.5H205.5ZM317 47.5V46.5H316V47.5H317ZM326 47.5H327V46.5H326V47.5ZM326 74.5H325V75.5H326V74.5ZM339.5 74.5H340.5V73.5H339.5V74.5ZM339.5 79V80H340.5V79H339.5ZM326 79V78H325V79H326ZM326 106V107H327V106H326ZM317 106H316V107H317V106ZM317 48.5H326V46.5H317V48.5ZM325 47.5V74.5H327V47.5H325ZM326 75.5H339.5V73.5H326V75.5ZM338.5 74.5V79H340.5V74.5H338.5ZM339.5 78H326V80H339.5V78ZM325 79V106H327V79H325ZM326 105H317V107H326V105ZM318 106V47.5H316V106H318ZM348.5 47.5V46.5H347.5V47.5H348.5ZM375.5 47.5H376.5V46.5H375.5V47.5ZM375.5 65.5V66.5H376.5V65.5H375.5ZM371 65.5V64.5H370V65.5H371ZM371 70V71H372V70H371ZM362 70H361V71H362V70ZM362 65.5V64.5H361V65.5H362ZM366.5 65.5V66.5H367.5V65.5H366.5ZM366.5 52H367.5V51H366.5V52ZM348.5 52H347.5V53H348.5V52ZM380 47.5V46.5H379V47.5H380ZM402.5 47.5H403.5V46.5H402.5V47.5ZM402.5 65.5V66.5H403.5V65.5H402.5ZM398 65.5V64.5H397V65.5H398ZM398 70V71H399V70H398ZM389 70H388V71H389V70ZM389 65.5V64.5H388V65.5H389ZM393.5 65.5V66.5H394.5V65.5H393.5ZM393.5 52H394.5V51H393.5V52ZM380 52H379V53H380V52ZM344 74.5V73.5H343V74.5H344ZM407 74.5H408V73.5H407V74.5ZM407 79V80H408V79H407ZM344 79H343V80H344V79ZM348.5 83.5V82.5H347.5V83.5H348.5ZM402.5 83.5H403.5V82.5H402.5V83.5ZM402.5 101.5V102.5H403.5V101.5H402.5ZM398 101.5V100.5H397V101.5H398ZM398 106V107H399V106H398ZM353 106H352V107H353V106ZM353 101.5H354V100.5H353V101.5ZM348.5 101.5H347.5V102.5H348.5V101.5ZM357.5 88V87H356.5V88H357.5ZM357.5 101.5H356.5V102.5H357.5V101.5ZM393.5 101.5V102.5H394.5V101.5H393.5ZM393.5 88H394.5V87H393.5V88ZM348.5 48.5H375.5V46.5H348.5V48.5ZM374.5 47.5V65.5H376.5V47.5H374.5ZM375.5 64.5H371V66.5H375.5V64.5ZM370 65.5V70H372V65.5H370ZM371 69H362V71H371V69ZM363 70V65.5H361V70H363ZM362 66.5H366.5V64.5H362V66.5ZM367.5 65.5V52H365.5V65.5H367.5ZM366.5 51H348.5V53H366.5V51ZM349.5 52V47.5H347.5V52H349.5ZM380 48.5H402.5V46.5H380V48.5ZM401.5 47.5V65.5H403.5V47.5H401.5ZM402.5 64.5H398V66.5H402.5V64.5ZM397 65.5V70H399V65.5H397ZM398 69H389V71H398V69ZM390 70V65.5H388V70H390ZM389 66.5H393.5V64.5H389V66.5ZM394.5 65.5V52H392.5V65.5H394.5ZM393.5 51H380V53H393.5V51ZM381 52V47.5H379V52H381ZM344 75.5H407V73.5H344V75.5ZM406 74.5V79H408V74.5H406ZM407 78H344V80H407V78ZM345 79V74.5H343V79H345ZM348.5 84.5H402.5V82.5H348.5V84.5ZM401.5 83.5V101.5H403.5V83.5H401.5ZM402.5 100.5H398V102.5H402.5V100.5ZM397 101.5V106H399V101.5H397ZM398 105H353V107H398V105ZM354 106V101.5H352V106H354ZM353 100.5H348.5V102.5H353V100.5ZM349.5 101.5V83.5H347.5V101.5H349.5ZM356.5 88V101.5H358.5V88H356.5ZM357.5 102.5H393.5V100.5H357.5V102.5ZM394.5 101.5V88H392.5V101.5H394.5ZM393.5 87H357.5V89H393.5V87ZM416 88V87H415V88H416ZM425 88H426V87H425V88ZM425 97V98H426V97H425ZM416 97H415V98H416V97ZM416 89H425V87H416V89ZM424 88V97H426V88H424ZM425 96H416V98H425V96ZM417 97V88H415V97H417ZM438.5 88V87H437.5V88H438.5ZM447.5 88H448.5V87H447.5V88ZM447.5 97V98H448.5V97H447.5ZM438.5 97H437.5V98H438.5V97ZM438.5 89H447.5V87H438.5V89ZM446.5 88V97H448.5V88H446.5ZM447.5 96H438.5V98H447.5V96ZM439.5 97V88H437.5V97H439.5ZM461 88V87H460V88H461ZM470 88H471V87H470V88ZM470 97V98H471V97H470ZM461 97H460V98H461V97ZM461 89H470V87H461V89ZM469 88V97H471V88H469ZM470 96H461V98H470V96ZM462 97V88H460V97H462ZM65 119.5V118.5H64V119.5H65ZM74 119.5H75V118.5H74V119.5ZM74 137.5H73V138.5H74V137.5ZM119 137.5H120V136.5H119V137.5ZM119 142V143H120V142H119ZM69.5 142H68.5V143H69.5V142ZM69.5 137.5H70.5V136.5H69.5V137.5ZM65 137.5H64V138.5H65V137.5ZM60.5 146.5V145.5H59.5V146.5H60.5ZM123.5 146.5H124.5V145.5H123.5V146.5ZM123.5 151V152H124.5V151H123.5ZM96.5 151V150H95.5V151H96.5ZM96.5 160V161H97.5V160H96.5ZM87.5 160H86.5V161H87.5V160ZM87.5 151H88.5V150H87.5V151ZM60.5 151H59.5V152H60.5V151ZM65 155.5V154.5H64V155.5H65ZM74 155.5H75V154.5H74V155.5ZM74 173.5H73V174.5H74V173.5ZM119 173.5H120V172.5H119V173.5ZM119 178V179H120V178H119ZM69.5 178H68.5V179H69.5V178ZM69.5 173.5H70.5V172.5H69.5V173.5ZM65 173.5H64V174.5H65V173.5ZM65 120.5H74V118.5H65V120.5ZM73 119.5V137.5H75V119.5H73ZM74 138.5H119V136.5H74V138.5ZM118 137.5V142H120V137.5H118ZM119 141H69.5V143H119V141ZM70.5 142V137.5H68.5V142H70.5ZM69.5 136.5H65V138.5H69.5V136.5ZM66 137.5V119.5H64V137.5H66ZM60.5 147.5H123.5V145.5H60.5V147.5ZM122.5 146.5V151H124.5V146.5H122.5ZM123.5 150H96.5V152H123.5V150ZM95.5 151V160H97.5V151H95.5ZM96.5 159H87.5V161H96.5V159ZM88.5 160V151H86.5V160H88.5ZM87.5 150H60.5V152H87.5V150ZM61.5 151V146.5H59.5V151H61.5ZM65 156.5H74V154.5H65V156.5ZM73 155.5V173.5H75V155.5H73ZM74 174.5H119V172.5H74V174.5ZM118 173.5V178H120V173.5H118ZM119 177H69.5V179H119V177ZM70.5 178V173.5H68.5V178H70.5ZM69.5 172.5H65V174.5H69.5V172.5ZM66 173.5V155.5H64V173.5H66ZM137 119.5V118.5H136V119.5H137ZM191 119.5H192V118.5H191V119.5ZM191 137.5V138.5H192V137.5H191ZM186.5 137.5V136.5H185.5V137.5H186.5ZM186.5 142V143H187.5V142H186.5ZM141.5 142H140.5V143H141.5V142ZM141.5 137.5H142.5V136.5H141.5V137.5ZM137 137.5H136V138.5H137V137.5ZM146 124V123H145V124H146ZM146 137.5H145V138.5H146V137.5ZM182 137.5V138.5H183V137.5H182ZM182 124H183V123H182V124ZM132.5 146.5V145.5H131.5V146.5H132.5ZM195.5 146.5H196.5V145.5H195.5V146.5ZM195.5 151V152H196.5V151H195.5ZM168.5 151V150H167.5V151H168.5ZM168.5 160V161H169.5V160H168.5ZM159.5 160H158.5V161H159.5V160ZM159.5 151H160.5V150H159.5V151ZM132.5 151H131.5V152H132.5V151ZM137 155.5V154.5H136V155.5H137ZM191 155.5H192V154.5H191V155.5ZM191 169V170H192V169H191ZM146 169V168H145V169H146ZM146 173.5H145V174.5H146V173.5ZM191 173.5H192V172.5H191V173.5ZM191 178V179H192V178H191ZM141.5 178H140.5V179H141.5V178ZM141.5 173.5H142.5V172.5H141.5V173.5ZM137 173.5H136V174.5H137V173.5ZM137 164.5V163.5H136V164.5H137ZM182 164.5V165.5H183V164.5H182ZM182 160H183V159H182V160ZM137 160H136V161H137V160ZM137 120.5H191V118.5H137V120.5ZM190 119.5V137.5H192V119.5H190ZM191 136.5H186.5V138.5H191V136.5ZM185.5 137.5V142H187.5V137.5H185.5ZM186.5 141H141.5V143H186.5V141ZM142.5 142V137.5H140.5V142H142.5ZM141.5 136.5H137V138.5H141.5V136.5ZM138 137.5V119.5H136V137.5H138ZM145 124V137.5H147V124H145ZM146 138.5H182V136.5H146V138.5ZM183 137.5V124H181V137.5H183ZM182 123H146V125H182V123ZM132.5 147.5H195.5V145.5H132.5V147.5ZM194.5 146.5V151H196.5V146.5H194.5ZM195.5 150H168.5V152H195.5V150ZM167.5 151V160H169.5V151H167.5ZM168.5 159H159.5V161H168.5V159ZM160.5 160V151H158.5V160H160.5ZM159.5 150H132.5V152H159.5V150ZM133.5 151V146.5H131.5V151H133.5ZM137 156.5H191V154.5H137V156.5ZM190 155.5V169H192V155.5H190ZM191 168H146V170H191V168ZM145 169V173.5H147V169H145ZM146 174.5H191V172.5H146V174.5ZM190 173.5V178H192V173.5H190ZM191 177H141.5V179H191V177ZM142.5 178V173.5H140.5V178H142.5ZM141.5 172.5H137V174.5H141.5V172.5ZM138 173.5V164.5H136V173.5H138ZM137 165.5H182V163.5H137V165.5ZM183 164.5V160H181V164.5H183ZM182 159H137V161H182V159ZM138 160V155.5H136V160H138ZM209 124V123H208V124H209ZM218 124V125H219V124H218ZM218 119.5V118.5H217V119.5H218ZM254 119.5H255V118.5H254V119.5ZM254 124H253V125H254V124ZM263 124H264V123H263V124ZM263 137.5V138.5H264V137.5H263ZM254 137.5V136.5H253V137.5H254ZM254 142V143H255V142H254ZM218 142H217V143H218V142ZM218 137.5H219V136.5H218V137.5ZM209 137.5H208V138.5H209V137.5ZM218 128.5V127.5H217V128.5H218ZM218 133H217V134H218V133ZM222.5 133H223.5V132H222.5V133ZM222.5 137.5H221.5V138.5H222.5V137.5ZM249.5 137.5V138.5H250.5V137.5H249.5ZM249.5 133V132H248.5V133H249.5ZM254 133V134H255V133H254ZM254 128.5H255V127.5H254V128.5ZM249.5 128.5H248.5V129.5H249.5V128.5ZM249.5 124H250.5V123H249.5V124ZM222.5 124V123H221.5V124H222.5ZM222.5 128.5V129.5H223.5V128.5H222.5ZM204.5 146.5V145.5H203.5V146.5H204.5ZM267.5 146.5H268.5V145.5H267.5V146.5ZM267.5 151V152H268.5V151H267.5ZM204.5 151H203.5V152H204.5V151ZM209 155.5V154.5H208V155.5H209ZM263 155.5H264V154.5H263V155.5ZM263 169V170H264V169H263ZM218 169V168H217V169H218ZM218 173.5H217V174.5H218V173.5ZM263 173.5H264V172.5H263V173.5ZM263 178V179H264V178H263ZM213.5 178H212.5V179H213.5V178ZM213.5 173.5H214.5V172.5H213.5V173.5ZM209 173.5H208V174.5H209V173.5ZM209 164.5V163.5H208V164.5H209ZM254 164.5V165.5H255V164.5H254ZM254 160H255V159H254V160ZM209 160H208V161H209V160ZM209 125H218V123H209V125ZM219 124V119.5H217V124H219ZM218 120.5H254V118.5H218V120.5ZM253 119.5V124H255V119.5H253ZM254 125H263V123H254V125ZM262 124V137.5H264V124H262ZM263 136.5H254V138.5H263V136.5ZM253 137.5V142H255V137.5H253ZM254 141H218V143H254V141ZM219 142V137.5H217V142H219ZM218 136.5H209V138.5H218V136.5ZM210 137.5V124H208V137.5H210ZM217 128.5V133H219V128.5H217ZM218 134H222.5V132H218V134ZM221.5 133V137.5H223.5V133H221.5ZM222.5 138.5H249.5V136.5H222.5V138.5ZM250.5 137.5V133H248.5V137.5H250.5ZM249.5 134H254V132H249.5V134ZM255 133V128.5H253V133H255ZM254 127.5H249.5V129.5H254V127.5ZM250.5 128.5V124H248.5V128.5H250.5ZM249.5 123H222.5V125H249.5V123ZM221.5 124V128.5H223.5V124H221.5ZM222.5 127.5H218V129.5H222.5V127.5ZM204.5 147.5H267.5V145.5H204.5V147.5ZM266.5 146.5V151H268.5V146.5H266.5ZM267.5 150H204.5V152H267.5V150ZM205.5 151V146.5H203.5V151H205.5ZM209 156.5H263V154.5H209V156.5ZM262 155.5V169H264V155.5H262ZM263 168H218V170H263V168ZM217 169V173.5H219V169H217ZM218 174.5H263V172.5H218V174.5ZM262 173.5V178H264V173.5H262ZM263 177H213.5V179H263V177ZM214.5 178V173.5H212.5V178H214.5ZM213.5 172.5H209V174.5H213.5V172.5ZM210 173.5V164.5H208V173.5H210ZM209 165.5H254V163.5H209V165.5ZM255 164.5V160H253V164.5H255ZM254 159H209V161H254V159ZM210 160V155.5H208V160H210ZM303.5 124V123H302.5V124H303.5ZM326 124V125H327V124H326ZM326 119.5V118.5H325V119.5H326ZM335 119.5H336V118.5H335V119.5ZM335 124H334V125H335V124ZM357.5 124H358.5V123H357.5V124ZM357.5 128.5V129.5H358.5V128.5H357.5ZM353 128.5V127.5H352V128.5H353ZM353 133H352V134H353V133ZM357.5 133H358.5V132H357.5V133ZM357.5 137.5V138.5H358.5V137.5H357.5ZM353 137.5V136.5H352V137.5H353ZM353 142V143H354V142H353ZM308 142H307V143H308V142ZM308 137.5H309V136.5H308V137.5ZM303.5 137.5H302.5V138.5H303.5V137.5ZM303.5 133V132H302.5V133H303.5ZM308 133V134H309V133H308ZM308 128.5H309V127.5H308V128.5ZM303.5 128.5H302.5V129.5H303.5V128.5ZM312.5 133V132H311.5V133H312.5ZM312.5 137.5H311.5V138.5H312.5V137.5ZM348.5 137.5V138.5H349.5V137.5H348.5ZM348.5 133H349.5V132H348.5V133ZM299 146.5V145.5H298V146.5H299ZM362 146.5H363V145.5H362V146.5ZM362 151V152H363V151H362ZM299 151H298V152H299V151ZM303.5 155.5V154.5H302.5V155.5H303.5ZM357.5 155.5H358.5V154.5H357.5V155.5ZM357.5 169V170H358.5V169H357.5ZM312.5 169V168H311.5V169H312.5ZM312.5 173.5H311.5V174.5H312.5V173.5ZM357.5 173.5H358.5V172.5H357.5V173.5ZM357.5 178V179H358.5V178H357.5ZM308 178H307V179H308V178ZM308 173.5H309V172.5H308V173.5ZM303.5 173.5H302.5V174.5H303.5V173.5ZM303.5 164.5V163.5H302.5V164.5H303.5ZM348.5 164.5V165.5H349.5V164.5H348.5ZM348.5 160H349.5V159H348.5V160ZM303.5 160H302.5V161H303.5V160ZM303.5 125H326V123H303.5V125ZM327 124V119.5H325V124H327ZM326 120.5H335V118.5H326V120.5ZM334 119.5V124H336V119.5H334ZM335 125H357.5V123H335V125ZM356.5 124V128.5H358.5V124H356.5ZM357.5 127.5H353V129.5H357.5V127.5ZM352 128.5V133H354V128.5H352ZM353 134H357.5V132H353V134ZM356.5 133V137.5H358.5V133H356.5ZM357.5 136.5H353V138.5H357.5V136.5ZM352 137.5V142H354V137.5H352ZM353 141H308V143H353V141ZM309 142V137.5H307V142H309ZM308 136.5H303.5V138.5H308V136.5ZM304.5 137.5V133H302.5V137.5H304.5ZM303.5 134H308V132H303.5V134ZM309 133V128.5H307V133H309ZM308 127.5H303.5V129.5H308V127.5ZM304.5 128.5V124H302.5V128.5H304.5ZM311.5 133V137.5H313.5V133H311.5ZM312.5 138.5H348.5V136.5H312.5V138.5ZM349.5 137.5V133H347.5V137.5H349.5ZM348.5 132H312.5V134H348.5V132ZM299 147.5H362V145.5H299V147.5ZM361 146.5V151H363V146.5H361ZM362 150H299V152H362V150ZM300 151V146.5H298V151H300ZM303.5 156.5H357.5V154.5H303.5V156.5ZM356.5 155.5V169H358.5V155.5H356.5ZM357.5 168H312.5V170H357.5V168ZM311.5 169V173.5H313.5V169H311.5ZM312.5 174.5H357.5V172.5H312.5V174.5ZM356.5 173.5V178H358.5V173.5H356.5ZM357.5 177H308V179H357.5V177ZM309 178V173.5H307V178H309ZM308 172.5H303.5V174.5H308V172.5ZM304.5 173.5V164.5H302.5V173.5H304.5ZM303.5 165.5H348.5V163.5H303.5V165.5ZM349.5 164.5V160H347.5V164.5H349.5ZM348.5 159H303.5V161H348.5V159ZM304.5 160V155.5H302.5V160H304.5ZM371 119.5V118.5H370V119.5H371ZM407 119.5H408V118.5H407V119.5ZM407 137.5V138.5H408V137.5H407ZM380 137.5V136.5H379V137.5H380ZM380 146.5H379V147.5H380V146.5ZM407 146.5H408V145.5H407V146.5ZM407 151V152H408V151H407ZM375.5 151H374.5V152H375.5V151ZM375.5 146.5H376.5V145.5H375.5V146.5ZM371 146.5H370V147.5H371V146.5ZM371 133V132H370V133H371ZM398 133V134H399V133H398ZM398 124H399V123H398V124ZM371 124H370V125H371V124ZM420.5 119.5V118.5H419.5V119.5H420.5ZM429.5 119.5H430.5V118.5H429.5V119.5ZM429.5 151V152H430.5V151H429.5ZM420.5 151H419.5V152H420.5V151ZM375.5 155.5V154.5H374.5V155.5H375.5ZM384.5 155.5H385.5V154.5H384.5V155.5ZM384.5 173.5H383.5V174.5H384.5V173.5ZM429.5 173.5H430.5V172.5H429.5V173.5ZM429.5 178V179H430.5V178H429.5ZM380 178H379V179H380V178ZM380 173.5H381V172.5H380V173.5ZM375.5 173.5H374.5V174.5H375.5V173.5ZM371 120.5H407V118.5H371V120.5ZM406 119.5V137.5H408V119.5H406ZM407 136.5H380V138.5H407V136.5ZM379 137.5V146.5H381V137.5H379ZM380 147.5H407V145.5H380V147.5ZM406 146.5V151H408V146.5H406ZM407 150H375.5V152H407V150ZM376.5 151V146.5H374.5V151H376.5ZM375.5 145.5H371V147.5H375.5V145.5ZM372 146.5V133H370V146.5H372ZM371 134H398V132H371V134ZM399 133V124H397V133H399ZM398 123H371V125H398V123ZM372 124V119.5H370V124H372ZM420.5 120.5H429.5V118.5H420.5V120.5ZM428.5 119.5V151H430.5V119.5H428.5ZM429.5 150H420.5V152H429.5V150ZM421.5 151V119.5H419.5V151H421.5ZM375.5 156.5H384.5V154.5H375.5V156.5ZM383.5 155.5V173.5H385.5V155.5H383.5ZM384.5 174.5H429.5V172.5H384.5V174.5ZM428.5 173.5V178H430.5V173.5H428.5ZM429.5 177H380V179H429.5V177ZM381 178V173.5H379V178H381ZM380 172.5H375.5V174.5H380V172.5ZM376.5 173.5V155.5H374.5V173.5H376.5ZM470 124V123H469V124H470ZM524 124H525V123H524V124ZM524 128.5V129.5H525V128.5H524ZM479 128.5V127.5H478V128.5H479ZM479 151H478V152H479V151ZM524 151H525V150H524V151ZM524 155.5V156.5H525V155.5H524ZM474.5 155.5H473.5V156.5H474.5V155.5ZM474.5 151H475.5V150H474.5V151ZM470 151H469V152H470V151ZM470 125H524V123H470V125ZM523 124V128.5H525V124H523ZM524 127.5H479V129.5H524V127.5ZM478 128.5V151H480V128.5H478ZM479 152H524V150H479V152ZM523 151V155.5H525V151H523ZM524 154.5H474.5V156.5H524V154.5ZM475.5 155.5V151H473.5V155.5H475.5ZM474.5 150H470V152H474.5V150ZM471 151V124H469V151H471ZM582.5 119.5V118.5H581.5V119.5H582.5ZM591.5 119.5H592.5V118.5H591.5V119.5ZM591.5 146.5H590.5V147.5H591.5V146.5ZM605 146.5H606V145.5H605V146.5ZM605 151V152H606V151H605ZM591.5 151V150H590.5V151H591.5ZM591.5 178V179H592.5V178H591.5ZM582.5 178H581.5V179H582.5V178ZM582.5 120.5H591.5V118.5H582.5V120.5ZM590.5 119.5V146.5H592.5V119.5H590.5ZM591.5 147.5H605V145.5H591.5V147.5ZM604 146.5V151H606V146.5H604ZM605 150H591.5V152H605V150ZM590.5 151V178H592.5V151H590.5ZM591.5 177H582.5V179H591.5V177ZM583.5 178V119.5H581.5V178H583.5ZM609.5 160V159H608.5V160H609.5ZM618.5 160H619.5V159H618.5V160ZM618.5 169V170H619.5V169H618.5ZM609.5 169H608.5V170H609.5V169ZM609.5 161H618.5V159H609.5V161ZM617.5 160V169H619.5V160H617.5ZM618.5 168H609.5V170H618.5V168ZM610.5 169V160H608.5V169H610.5ZM632 160V159H631V160H632ZM641 160H642V159H641V160ZM641 169V170H642V169H641ZM632 169H631V170H632V169ZM632 161H641V159H632V161ZM640 160V169H642V160H640ZM641 168H632V170H641V168ZM633 169V160H631V169H633ZM654.5 160V159H653.5V160H654.5ZM663.5 160H664.5V159H663.5V160ZM663.5 169V170H664.5V169H663.5ZM654.5 169H653.5V170H654.5V169ZM654.5 161H663.5V159H654.5V161ZM662.5 160V169H664.5V160H662.5ZM663.5 168H654.5V170H663.5V168ZM655.5 169V160H653.5V169H655.5ZM677 160V159H676V160H677ZM686 160H687V159H686V160ZM686 169V170H687V169H686ZM677 169H676V170H677V169ZM677 161H686V159H677V161ZM685 160V169H687V160H685ZM686 168H677V170H686V168ZM678 169V160H676V169H678Z" fill="white"/>
</svg>
