<svg width="128" height="102" viewBox="0 0 128 102" fill="none" xmlns="http://www.w3.org/2000/svg">
<rect width="128" height="102" fill="#C4C4C4"/>
<path d="M72.5312 49.9375H71.3594V46.4219C71.3594 42.3301 68.0293 39 63.9375 39C59.8457 39 56.5156 42.3301 56.5156 46.4219V49.9375H55.3438C54.0498 49.9375 53 50.9873 53 52.2812V61.6562C53 62.9502 54.0498 64 55.3438 64H72.5312C73.8252 64 74.875 62.9502 74.875 61.6562V52.2812C74.875 50.9873 73.8252 49.9375 72.5312 49.9375ZM67.4531 49.9375H60.4219V46.4219C60.4219 44.4834 61.999 42.9062 63.9375 42.9062C65.876 42.9062 67.4531 44.4834 67.4531 46.4219V49.9375Z" fill="white"/>
</svg>
